<?xml version="1.0" encoding="UTF-8"?>
<svg id="Layer_1" data-name="Layer 1" xmlns="http://www.w3.org/2000/svg" viewBox="0 0 354.57 345.77">
  <g>
    <path d="M96.84,257.43c.49.49.73,1.05.73,1.7v84.21c0,.65-.24,1.22-.73,1.7-.49.49-1.05.73-1.7.73h-14.34c-.65,0-1.22-.24-1.7-.73-.49-.49-.73-1.05-.73-1.7v-47.27l-20.53,37.42c-.57.81-1.3,1.22-2.19,1.22h-13.85c-.97,0-1.66-.4-2.07-1.22l-20.53-37.42v47.27c0,.65-.24,1.22-.73,1.7s-1.05.73-1.7.73H2.43c-.49,0-1.05-.24-1.7-.73-.49-.49-.73-1.05-.73-1.7v-84.21c0-.65.24-1.21.73-1.7.49-.49,1.05-.73,1.7-.73h16.16c.97,0,1.66.41,2.07,1.22l28.07,51.03,28.07-51.03c.57-.81,1.29-1.22,2.19-1.22h16.16c.65,0,1.22.24,1.7.73Z"/>
    <path d="M150.67,256.7c6.24,0,12.09,1.17,17.56,3.52,5.47,2.35,10.25,5.53,14.34,9.54,4.09,4.01,7.33,8.71,9.72,14.1,2.39,5.39,3.58,11.16,3.58,17.32s-1.2,11.93-3.58,17.32c-2.39,5.39-5.63,10.08-9.72,14.1-4.09,4.01-8.87,7.19-14.34,9.54-5.47,2.35-11.32,3.52-17.56,3.52s-12.11-1.17-17.62-3.52c-5.51-2.35-10.31-5.53-14.4-9.54-4.09-4.01-7.33-8.71-9.72-14.1-2.39-5.39-3.58-11.16-3.58-17.32s1.19-11.93,3.58-17.32c2.39-5.39,5.63-10.09,9.72-14.1,4.09-4.01,8.89-7.19,14.4-9.54,5.51-2.35,11.38-3.52,17.62-3.52ZM124.79,301.18c0,3.48.67,6.74,2,9.78,1.34,3.04,3.18,5.69,5.53,7.96,2.35,2.27,5.06,4.07,8.14,5.41,3.08,1.34,6.4,2,9.96,2s6.78-.67,9.9-2c3.12-1.34,5.85-3.14,8.2-5.41,2.35-2.27,4.19-4.92,5.53-7.96,1.34-3.04,2-6.3,2-9.78s-.67-6.74-2-9.78c-1.34-3.04-3.18-5.69-5.53-7.96-2.35-2.27-5.08-4.07-8.2-5.41-3.12-1.34-6.42-2-9.9-2s-6.89.67-9.96,2c-3.08,1.34-5.79,3.14-8.14,5.41-2.35,2.27-4.19,4.92-5.53,7.96-1.34,3.04-2,6.3-2,9.78Z"/>
    <path d="M240.77,256.7c6.16,0,11.94,1.17,17.34,3.52,5.39,2.35,10.1,5.53,14.12,9.54,4.02,4.01,7.2,8.71,9.55,14.1,2.35,5.39,3.53,11.16,3.53,17.32s-1.18,11.93-3.53,17.32c-2.35,5.39-5.54,10.11-9.55,14.16-4.02,4.05-8.72,7.25-14.12,9.6-5.4,2.35-11.18,3.52-17.34,3.52h-35.78c-.73,0-1.34-.26-1.83-.79-.49-.53-.73-1.11-.73-1.76v-84.09c0-.65.24-1.21.73-1.7.49-.49,1.1-.73,1.83-.73h35.78ZM240.95,326.45c3.48,0,6.74-.67,9.78-2.01,3.04-1.34,5.69-3.15,7.96-5.42,2.27-2.27,4.07-4.93,5.41-7.98,1.34-3.04,2-6.31,2-9.81s-.67-6.76-2-9.8c-1.34-3.05-3.14-5.7-5.41-7.98-2.27-2.27-4.92-4.08-7.96-5.42-3.04-1.34-6.3-2.01-9.78-2.01h-19.08v50.43h19.08Z"/>
    <path d="M354.11,341.88c.57.89.61,1.74.12,2.55-.41.81-1.14,1.22-2.19,1.22h-17.62c-.89,0-1.58-.36-2.07-1.09l-15.8-23.69-15.92,23.69c-.41.73-1.05,1.09-1.94,1.09h-17.62c-1.05,0-1.78-.44-2.19-1.34-.57-.81-.53-1.66.12-2.55l27.1-40.58-27.1-40.71c-.65-.73-.69-1.58-.12-2.55.4-.81,1.13-1.22,2.19-1.22h17.62c.89,0,1.58.36,2.07,1.09l15.8,23.69,15.8-23.69c.65-1.05,1.54-1.42,2.67-1.09h17.01c1.05,0,1.78.45,2.19,1.34.49.73.44,1.58-.12,2.55l-27.1,40.58,27.1,40.71Z"/>
  </g>
  <path d="M282.2,184.42l-25.21,25.21c-3.43,3.43-8.99,3.43-12.41,0l-62.3-62.3c-3.43-3.43-8.99-3.43-12.41,0l-62.3,62.3c-3.43,3.43-8.99,3.43-12.41,0l-25.21-25.21c-3.26-3.26-3.41-8.45-.42-11.96,32.57-38.15,32.57-94.57,0-132.72-2.99-3.5-2.83-8.7.42-11.96L95.14,2.57c3.43-3.43,8.99-3.43,12.41,0l62.3,62.3c3.43,3.43,8.99,3.43,12.41,0L244.57,2.57c3.43-3.43,8.99-3.43,12.41,0l25.21,25.21c3.26,3.26,3.41,8.45.42,11.96-32.57,38.15-32.57,94.57,0,132.72,2.99,3.5,2.84,8.7-.42,11.96Z"/>
</svg>