<?xml version="1.0" encoding="UTF-8"?>
<svg id="Layer_1" data-name="Layer 1" xmlns="http://www.w3.org/2000/svg" viewBox="0 0 837.94 173.51">
  <g>
    <path d="M411.55,14.38c.8.8,1.21,1.74,1.21,2.81v139.31c0,1.07-.4,2.01-1.21,2.81s-1.74,1.21-2.81,1.21h-23.72c-1.08,0-2.01-.4-2.81-1.21-.8-.8-1.21-1.74-1.21-2.81v-78.2l-33.97,61.92c-.94,1.34-2.15,2.01-3.62,2.01h-22.92c-1.61,0-2.75-.67-3.42-2.01l-33.97-61.92v78.2c0,1.07-.4,2.01-1.21,2.81-.8.8-1.74,1.21-2.81,1.21h-23.72c-.8,0-1.74-.4-2.81-1.21-.8-.8-1.2-1.74-1.2-2.81V17.19c0-1.07.4-2.01,1.2-2.81.8-.8,1.74-1.21,2.81-1.21h26.74c1.61,0,2.75.67,3.42,2.01l46.44,84.43,46.44-84.43c.93-1.34,2.14-2.01,3.62-2.01h26.74c1.07,0,2.01.4,2.81,1.21Z"/>
    <path d="M500.6,13.17c10.32,0,20,1.94,29.05,5.83,9.05,3.89,16.95,9.15,23.72,15.78,6.77,6.63,12.13,14.41,16.08,23.32,3.95,8.92,5.93,18.46,5.93,28.65s-1.98,19.74-5.93,28.65c-3.96,8.91-9.32,16.68-16.08,23.32-6.77,6.63-14.68,11.89-23.72,15.78-9.05,3.89-18.73,5.83-29.05,5.83s-20.04-1.94-29.15-5.83c-9.12-3.89-17.06-9.15-23.82-15.78-6.77-6.64-12.13-14.41-16.08-23.32-3.96-8.91-5.93-18.46-5.93-28.65s1.97-19.73,5.93-28.65c3.95-8.91,9.31-16.69,16.08-23.32,6.77-6.63,14.71-11.89,23.82-15.78,9.11-3.89,18.83-5.83,29.15-5.83ZM457.78,86.75c0,5.76,1.1,11.16,3.32,16.18,2.21,5.03,5.26,9.42,9.15,13.17,3.89,3.75,8.37,6.73,13.47,8.95,5.09,2.21,10.58,3.32,16.48,3.32s11.22-1.1,16.39-3.32c5.16-2.21,9.68-5.19,13.57-8.95,3.89-3.75,6.94-8.14,9.15-13.17,2.21-5.03,3.32-10.42,3.32-16.18s-1.11-11.16-3.32-16.18c-2.21-5.03-5.26-9.41-9.15-13.17-3.89-3.75-8.41-6.73-13.57-8.95-5.16-2.21-10.62-3.32-16.39-3.32s-11.39,1.1-16.48,3.32c-5.1,2.21-9.58,5.2-13.47,8.95-3.89,3.75-6.94,8.14-9.15,13.17-2.21,5.03-3.32,10.42-3.32,16.18Z"/>
    <path d="M649.66,13.17c10.2,0,19.76,1.94,28.69,5.83,8.92,3.89,16.71,9.15,23.35,15.78,6.64,6.63,11.91,14.41,15.8,23.32,3.89,8.92,5.84,18.46,5.84,28.65s-1.95,19.74-5.84,28.65c-3.89,8.91-9.16,16.72-15.8,23.42-6.65,6.7-14.43,12-23.35,15.88-8.93,3.89-18.49,5.83-28.69,5.83h-59.19c-1.21,0-2.22-.43-3.02-1.31-.8-.87-1.2-1.84-1.2-2.92V17.19c0-1.07.4-2.01,1.2-2.81.8-.8,1.81-1.21,3.02-1.21h59.19ZM649.97,128.56c5.76,0,11.16-1.11,16.18-3.32,5.03-2.22,9.41-5.2,13.17-8.97,3.75-3.76,6.73-8.16,8.95-13.2,2.21-5.04,3.32-10.44,3.32-16.22s-1.11-11.18-3.32-16.22c-2.21-5.04-5.2-9.44-8.95-13.2-3.75-3.76-8.14-6.75-13.17-8.97-5.03-2.22-10.42-3.33-16.18-3.33h-31.56v83.43h31.56Z"/>
    <path d="M837.18,154.1c.93,1.48,1.01,2.88.2,4.22-.67,1.34-1.88,2.01-3.62,2.01h-29.15c-1.48,0-2.61-.6-3.42-1.81l-26.14-39.2-26.33,39.2c-.67,1.21-1.74,1.81-3.22,1.81h-29.15c-1.74,0-2.95-.73-3.62-2.21-.94-1.34-.87-2.75.2-4.22l44.83-67.14-44.83-67.34c-1.08-1.21-1.14-2.61-.2-4.22.67-1.34,1.87-2.01,3.62-2.01h29.15c1.47,0,2.62.6,3.42,1.81l26.13,39.2,26.14-39.2c1.07-1.74,2.54-2.34,4.42-1.81h28.14c1.74,0,2.95.74,3.62,2.21.8,1.21.73,2.61-.2,4.22l-44.83,67.14,44.83,67.34Z"/>
  </g>
  <path d="M175.66,150.8l-20.62,20.62c-2.8,2.8-7.35,2.8-10.15,0l-50.94-50.94c-2.8-2.8-7.35-2.8-10.15,0l-50.95,50.94c-2.8,2.8-7.35,2.8-10.15,0l-20.61-20.61c-2.66-2.66-2.79-6.91-.35-9.78,26.63-31.2,26.63-77.33,0-108.53-2.45-2.86-2.32-7.11.35-9.78L22.71,2.1c2.8-2.8,7.35-2.8,10.15,0l50.95,50.95c2.8,2.8,7.35,2.8,10.15,0L144.9,2.1c2.8-2.8,7.35-2.8,10.15,0l20.61,20.61c2.66,2.66,2.79,6.91.34,9.78-26.63,31.19-26.63,77.33,0,108.52,2.45,2.86,2.32,7.11-.35,9.78Z"/>
</svg>